<svg width="70" height="80" viewBox="0 0 70 80" fill="none" xmlns="http://www.w3.org/2000/svg">
<path fill-rule="evenodd" clip-rule="evenodd" d="M34.4557 0.198395C34.2542 0.310099 33.9673 0.479894 33.8182 0.575755C33.669 0.671731 33.234 0.921545 32.8515 1.13095C32.469 1.34046 29.2613 3.17319 25.7233 5.20385C22.1853 7.23438 16.3697 10.5676 12.7998 12.6111C9.22992 14.6545 4.90084 17.1337 3.17964 18.1204L0.050187 19.9145L0.0251514 39.9983L0 60.0821L5.82044 63.4065C9.02164 65.2348 13.8725 68.0111 16.6004 69.576C19.3281 71.1409 21.7795 72.5443 22.0479 72.6948C23.112 73.2912 25.7963 74.8256 28.954 76.6423C34.0718 79.5868 34.8107 79.9993 34.9685 80C35.0491 80.0003 36.4573 79.2313 38.098 78.291C41.2236 76.4996 48.8499 72.1323 60.2632 65.5974C63.9925 63.4621 67.461 61.4734 67.971 61.1778C68.4809 60.8823 69.1461 60.4996 69.4491 60.3275L70 60.0146L69.9707 39.9605L69.9414 19.9063L66.0006 17.6342C63.8331 16.3846 61.9294 15.2939 61.77 15.2104C61.0991 14.8591 60.3004 14.4003 60.0136 14.2015C59.8443 14.0843 59.6813 13.9883 59.6512 13.9883C59.6211 13.9883 57.081 12.5418 54.0064 10.7738C50.9318 9.00581 48.3946 7.55928 48.3683 7.55928C48.3419 7.55928 48.1075 7.42622 47.8475 7.26366C47.5874 7.10098 47.132 6.83395 46.8355 6.67001C46.5392 6.50618 44.0799 5.09788 41.3706 3.54034C34.3112 -0.517982 35.0788 -0.146936 34.4557 0.198395ZM37.4877 6.12687C38.5077 6.70456 40.9591 8.10804 42.9353 9.24564C46.1656 11.1051 47.215 11.7044 48.732 12.556C48.9877 12.6996 51.759 14.2898 54.8903 16.0896C58.0216 17.8895 60.8896 19.5293 61.2637 19.7338C61.6378 19.9381 62.0743 20.193 62.2336 20.3001C62.393 20.4072 62.6016 20.5264 62.6972 20.5651C62.7929 20.6039 63.5231 21.0133 64.3199 21.475L65.7687 22.3145L65.7981 39.9496L65.8274 57.5849L60.1766 60.8268C57.0687 62.6098 54.1869 64.2643 53.7725 64.5033C52.1501 65.4394 39.1059 72.9107 37.0829 74.0628L34.9394 75.2834L34.533 75.0443C33.9325 74.6909 25.5012 69.8467 25.0279 69.5829C24.2372 69.1425 20.7623 67.1561 18.2474 65.7068C15.9777 64.3989 12.4067 62.3588 11.6776 61.9535C11.5298 61.8713 11.3307 61.7469 11.2351 61.6767C11.1395 61.6067 10.7744 61.3959 10.4238 61.2083C9.47008 60.6982 4.47674 57.8335 4.30938 57.7005C4.19382 57.6088 4.17017 53.9726 4.19347 39.9536L4.22279 22.3221L5.03413 21.8672C5.48037 21.6169 8.60983 19.8251 11.9885 17.8852C15.3671 15.9455 18.3237 14.252 18.5586 14.122C18.7934 13.9921 19.1967 13.7539 19.4545 13.5927C19.7124 13.4314 19.947 13.2995 19.976 13.2995C20.0049 13.2995 20.2798 13.1493 20.5868 12.9657C21.356 12.5058 33.3695 5.62667 34.2991 5.11373C35.0235 4.71409 35.062 4.70571 35.3422 4.88768C35.5023 4.99157 36.4678 5.54929 37.4877 6.12687ZM33.8227 9.65767C33.161 10.0541 30.8594 11.4031 28.7079 12.6554L24.7961 14.9324L24.7969 40.033L24.7977 65.1335L25.1736 65.3811C26.3744 66.1723 28.689 67.6348 28.8176 67.6837C28.9412 67.7307 28.9687 65.4411 28.9687 55.1004V42.4597H36.7344H44.5V39.934V37.4083H36.7338H28.9674L28.9971 27.4087L29.0266 17.4089L32.0756 15.7453L35.1248 14.0816L40.2884 17.156C44.3496 19.574 45.4725 20.1952 45.5483 20.0656C45.6013 19.9749 46.1626 19.1258 46.7957 18.1786C47.6392 16.9167 47.9121 16.4231 47.8172 16.3309C47.7458 16.2618 46.3053 15.4035 44.6159 14.4235C42.9266 13.4436 40.1182 11.8082 38.375 10.7893C34.6584 8.61708 35.2952 8.7754 33.8227 9.65767ZM18.74 19.0644L16.5668 20.3279L16.5576 30.5614C16.5526 36.1899 16.5306 40.7434 16.5088 40.6802C16.487 40.6171 15.3876 36.8716 14.0656 32.3569C12.7437 27.8423 11.6483 24.1309 11.6315 24.1095C11.6146 24.0882 10.7492 24.56 9.70838 25.1583L7.81587 26.2459L7.78643 40.8874L7.75699 55.529L9.58297 56.5643L11.409 57.5996L11.4678 47.4178C11.5003 41.8178 11.5393 37.3338 11.5548 37.4533C11.5702 37.5728 11.6818 38.0119 11.8029 38.4291C11.9239 38.8463 12.3999 40.6085 12.8607 42.3449C13.3215 44.0813 13.9743 46.5352 14.3113 47.7981C14.6484 49.0609 15.2745 51.4115 15.7026 53.0216C16.1307 54.6318 16.8055 57.1632 17.2022 58.647L17.9233 61.3449L18.7228 61.8123C19.1626 62.0693 19.8744 62.4743 20.3047 62.7119L21.0871 63.1441V40.4605C21.0871 27.9845 21.0479 17.7822 21.0002 17.7889C20.9524 17.7955 19.9353 18.3694 18.74 19.0644ZM49.7465 17.9203C49.6019 18.103 47.9444 20.7369 47.7662 21.0673C47.6396 21.3019 47.7634 21.3982 50.0359 22.8331C51.358 23.6678 52.609 24.4758 52.8163 24.6286L53.193 24.9064V43.2118C53.193 53.2797 53.232 61.515 53.2799 61.5123C53.3278 61.5097 54.3317 60.9464 55.5111 60.2608L57.6553 59.0142L57.7133 43.2145L57.7713 27.4149L58.5826 27.968C61.1168 29.6955 63.4548 31.2712 63.5339 31.3045C63.5837 31.3257 63.6244 30.2149 63.6243 28.8362L63.624 26.3297L63.0737 25.9901C62.1128 25.3972 54.3804 20.5595 52.1263 19.1409C49.7314 17.634 49.9033 17.7222 49.7465 17.9203Z" fill="#B69B72"/>
</svg>
