<svg width="32" height="32" viewBox="0 0 32 32" fill="none" xmlns="http://www.w3.org/2000/svg">
<path d="M16.0607 8.93934C15.4749 8.35355 14.5251 8.35355 13.9393 8.93934C13.3536 9.52513 13.3536 10.4749 13.9393 11.0607L16.0607 8.93934ZM13.9393 20.9393C13.3536 21.5251 13.3536 22.4749 13.9393 23.0607C14.5251 23.6464 15.4749 23.6464 16.0607 23.0607L13.9393 20.9393ZM21.3536 14.2322L16.0607 8.93934L13.9393 11.0607L19.2322 16.3536L21.3536 14.2322ZM19.2322 15.6464L13.9393 20.9393L16.0607 23.0607L21.3536 17.7678L19.2322 15.6464ZM19.2322 16.3536C19.037 16.1583 19.037 15.8417 19.2322 15.6464L21.3536 17.7678C22.3299 16.7915 22.3299 15.2085 21.3536 14.2322L19.2322 16.3536Z" fill="white"/>
</svg>
