<svg width="36" height="36" viewBox="0 0 36 36" fill="none" xmlns="http://www.w3.org/2000/svg">
<path d="M0 18C0 8.0589 8.0589 0 18 0C27.9411 0 36 8.0589 36 18C36 27.9411 27.9411 36 18 36C8.0589 36 0 27.9411 0 18Z" fill="#007AFF"/>
<path fill-rule="evenodd" clip-rule="evenodd" d="M17.7527 15.0337C17.7527 14.3399 17.571 13.7452 17.2086 13.2473C16.6046 12.4366 15.5808 12.0212 14.1335 12H8.3999V23.7049H13.7463C14.3491 23.7049 14.9068 23.6537 15.4227 23.5478C15.9386 23.441 16.3845 23.246 16.7627 22.9598C17.0991 22.7104 17.3791 22.4029 17.6026 22.0388C17.9559 21.4886 18.1321 20.866 18.1321 20.1722C18.1321 19.4995 17.9773 18.9272 17.6703 18.4572C17.3599 17.9861 16.9038 17.6419 16.2987 17.4237C16.6972 17.2232 16.9987 17.0005 17.2041 16.7577C17.571 16.3234 17.7527 15.7476 17.7527 15.0337ZM25.7531 14.0024H20.6687V12.5457H25.7531V14.0024ZM21.2613 18.5207C21.3449 17.9571 21.5492 17.5106 21.8732 17.1809C22.1972 16.8512 22.6555 16.6864 23.2425 16.6864C23.7844 16.6864 24.2371 16.8412 24.605 17.1519C24.9686 17.4649 25.1741 17.9192 25.2158 18.5207H21.2613ZM25.305 15.2252C25.918 15.4948 26.4226 15.9224 26.8199 16.506C27.1823 17.0205 27.4148 17.6174 27.521 18.2956C27.5831 18.6922 27.6079 19.2668 27.5978 20.0141H21.2048C21.2432 20.8816 21.5458 21.4909 22.1238 21.8395C22.4738 22.0566 22.8948 22.1657 23.3893 22.1657C23.9097 22.1657 24.3353 22.0332 24.6615 21.7693C24.841 21.6256 24.9991 21.4274 25.1345 21.1735H27.4769C27.4148 21.6857 27.1304 22.2081 26.6269 22.7382C25.8412 23.579 24.7406 24 23.3261 24C22.1576 24 21.127 23.6459 20.2363 22.9353C19.3411 22.2259 18.8963 21.0699 18.8963 19.4706C18.8963 17.9704 19.2993 16.82 20.1042 16.0193C20.9114 15.2208 21.9556 14.8187 23.2414 14.8187C24.0056 14.8187 24.6931 14.9546 25.305 15.2252ZM10.765 21.6735V18.5518H13.6865C14.1945 18.5563 14.5907 18.6231 14.8729 18.7501C15.3775 18.9784 15.6282 19.396 15.6282 20.0063C15.6282 20.7257 15.3685 21.2114 14.8481 21.4675C14.5625 21.6044 14.1606 21.6735 13.6459 21.6735H10.765ZM10.765 14.0325V16.6151H13.6504C14.164 16.6151 14.5828 16.5182 14.9057 16.3244C15.2263 16.1307 15.3877 15.7876 15.3877 15.2976C15.3877 14.7508 15.1755 14.3911 14.751 14.2151C14.383 14.0937 13.9156 14.0325 13.3478 14.0325H10.765Z" fill="white"/>
</svg>
