<svg width="52" height="52" viewBox="0 0 52 52" fill="none" xmlns="http://www.w3.org/2000/svg">
<path fill-rule="evenodd" clip-rule="evenodd" d="M25.6424 21.7152C25.6424 20.713 25.3799 19.8541 24.8565 19.1349C23.984 17.9639 22.5052 17.3638 20.4147 17.3333H12.1328V34.2403H19.8554C20.7261 34.2403 21.5317 34.1663 22.2768 34.0134C23.022 33.8591 23.6661 33.5775 24.2124 33.1641C24.6983 32.8038 25.1027 32.3597 25.4255 31.8338C25.9359 31.039 26.1904 30.1398 26.1904 29.1376C26.1904 28.1659 25.9669 27.3391 25.5234 26.6603C25.075 25.9798 24.4162 25.4827 23.5422 25.1675C24.1178 24.8779 24.5532 24.5562 24.85 24.2055C25.3799 23.5781 25.6424 22.7465 25.6424 21.7152ZM37.1985 20.2256H29.8543V18.1215H37.1985V20.2256ZM30.7104 26.752C30.831 25.938 31.1261 25.2929 31.5941 24.8167C32.0621 24.3406 32.7242 24.1025 33.5721 24.1025C34.3548 24.1025 35.0087 24.3261 35.5402 24.7749C36.0653 25.227 36.3621 25.8832 36.4223 26.752H30.7104ZM36.5513 21.9919C37.4367 22.3813 38.1655 22.999 38.7395 23.8419C39.2629 24.5851 39.5988 25.4473 39.7521 26.427C39.8418 26.9997 39.8776 27.8298 39.863 28.9092H30.6288C30.6842 30.1623 31.1213 31.0423 31.9562 31.5458C32.4617 31.8595 33.0699 32.0171 33.7841 32.0171C34.5358 32.0171 35.1505 31.8257 35.6218 31.4444C35.881 31.237 36.1094 30.9505 36.305 30.5838H39.6885C39.5988 31.3237 39.1879 32.0783 38.4606 32.844C37.3257 34.0585 35.7359 34.6666 33.6928 34.6666C32.005 34.6666 30.5163 34.155 29.2298 33.1287C27.9367 32.104 27.2943 30.4342 27.2943 28.1241C27.2943 25.9572 27.8764 24.2955 29.039 23.1389C30.2049 21.9855 31.7132 21.4047 33.5705 21.4047C34.6744 21.4047 35.6674 21.601 36.5513 21.9919ZM15.549 31.3061V26.797H19.769C20.5028 26.8034 21.0751 26.9 21.4827 27.0834C22.2116 27.4131 22.5737 28.0163 22.5737 28.8979C22.5737 29.9371 22.1986 30.6385 21.4469 31.0085C21.0343 31.2063 20.4538 31.3061 19.7103 31.3061H15.549ZM15.549 20.2691V23.9995H19.7168C20.4588 23.9995 21.0637 23.8596 21.5301 23.5796C21.9931 23.2998 22.2263 22.8043 22.2263 22.0965C22.2263 21.3066 21.9198 20.787 21.3066 20.5329C20.7751 20.3575 20.1 20.2691 19.2798 20.2691H15.549Z" fill="#007AFF"/>
</svg>
