<svg width="286" height="53" viewBox="0 0 286 53" fill="none" xmlns="http://www.w3.org/2000/svg">
<path opacity="0.2" d="M24.5435 0C26.9747 0 29.2206 0.185234 31.2814 0.740935C33.3421 1.1114 35.0323 1.87549 36.5374 2.80166C38.0424 3.72783 39.1538 5.04762 39.9179 6.73788C40.6588 8.42814 41.0524 10.4889 41.0524 12.7348C41.0524 15.3512 40.4967 17.5972 39.1769 19.2875C38.0424 20.9777 36.19 22.4827 33.9209 23.5941C37.1162 24.5203 39.5474 26.2106 41.0293 28.4565C42.5111 30.7025 43.4605 33.5042 43.4605 36.6994C43.4605 39.3159 42.9048 41.5618 41.9554 43.4373C41.0293 45.3128 39.5242 47.0031 37.834 48.1145C36.1437 49.249 34.083 50.1752 31.8371 50.7309C29.5911 51.2866 27.3451 51.6571 25.0992 51.6571L0 51.7034V0H24.5435ZM23.0384 20.9777C25.0992 20.9777 26.7894 20.422 28.0861 19.4727C29.3827 18.5234 29.9616 16.8563 29.9616 14.7955C29.9616 13.661 29.7763 12.5496 29.4059 11.8087C29.0354 11.0677 28.4797 10.4889 27.7156 9.93316C26.9747 9.56269 26.2106 9.19222 25.2844 9.00699C24.3582 8.82176 23.4089 8.82176 22.2975 8.82176H11.4382V21.0009C11.4382 20.9777 23.0384 20.9777 23.0384 20.9777ZM23.5941 43.09C24.7287 43.09 25.8401 42.9048 26.7894 42.7195C27.7156 42.5343 28.6649 42.1638 29.4059 41.585C30.1468 41.0061 30.7256 40.4504 31.2814 39.5242C31.6518 38.5981 32.0223 37.4635 32.0223 36.1437C32.0223 33.5273 31.2814 31.6518 29.7763 30.332C28.2713 29.1975 26.2106 28.6418 23.7794 28.6418H11.4382V43.0668H23.5941V43.09ZM59.761 42.9048C61.2661 44.4098 63.512 45.1507 66.4989 45.1507C68.5596 45.1507 70.4351 44.595 71.9402 43.6457C73.4452 42.5111 74.3713 41.3997 74.7418 40.2652H83.9109C82.4059 44.7571 80.1599 47.9524 77.173 50.0131C74.1861 51.8886 70.6204 53 66.3137 53C63.3268 53 60.6872 52.4443 58.256 51.495C55.8248 50.5688 53.9493 49.249 52.2591 47.3735C50.5688 45.6833 49.2722 43.6225 48.5081 41.1914C47.5819 38.7602 47.1883 36.1437 47.1883 33.1337C47.1883 30.332 47.5588 27.6924 48.5081 25.2613C49.4574 22.8301 50.754 20.7693 52.4443 18.8938C54.1346 17.2036 56.1953 15.6986 58.4412 14.7724C60.8724 13.8462 63.3036 13.2674 66.3137 13.2674C69.509 13.2674 72.3106 13.8231 74.7418 15.1429C77.173 16.4626 79.0485 17.9445 80.5535 20.1905C82.0585 22.2512 83.17 24.6824 83.934 27.2988C84.3045 29.9152 84.4897 32.5548 84.3045 35.5417H57.1446C57.1446 38.5981 58.256 41.3997 59.761 42.9048ZM71.5697 23.2237C70.2499 21.9039 68.1892 21.163 65.758 21.163C64.0677 21.163 62.7711 21.5334 61.6365 22.0891C60.502 22.6448 59.761 23.4089 59.0201 24.1498C58.2792 24.8908 57.8855 25.8401 57.7003 26.7663C57.5151 27.6924 57.3298 28.4565 57.3298 29.1975H74.1861C73.8156 26.419 72.8663 24.5435 71.5697 23.2237V23.2237ZM55.0839 3.56575H76.0616V8.61337H55.0839V3.56575ZM98.9148 0V19.4727H99.1001C100.42 17.2267 102.087 15.7217 104.148 14.7955C106.208 13.8694 108.084 13.2905 110.145 13.2905C112.946 13.2905 115.192 13.661 116.882 14.4251C118.573 15.166 120.078 16.3006 121.004 17.6204C121.93 18.9401 122.694 20.6073 123.065 22.4827C123.435 24.3582 123.62 26.419 123.62 28.8502V51.8886H113.317V30.7256C113.317 27.5304 112.761 25.2844 111.812 23.8025C110.862 22.3207 109.218 21.5334 106.787 21.5334C103.986 21.5334 101.925 22.4596 100.79 23.9646C99.4705 25.6549 98.9148 28.4565 98.9148 32.2075V51.8886H88.6112V0H98.9148ZM131.145 19.8663C132.28 18.1761 133.577 17.0647 135.267 15.9301C136.957 15.0039 138.833 14.2398 140.893 13.8694C142.954 13.4989 145.015 13.3137 147.076 13.3137C148.951 13.3137 150.827 13.4989 152.887 13.6841C154.763 13.8694 156.638 14.4251 158.143 15.1892C159.834 15.9301 160.945 17.0647 162.08 18.3844C163.006 19.7042 163.585 21.5797 163.585 23.8257V43.5068C163.585 45.197 163.77 46.8873 163.955 48.3692C164.14 49.8742 164.696 51.1708 165.275 51.9349H154.786C154.415 51.5644 154.23 50.8004 154.045 50.2447C153.86 49.6889 153.86 48.9249 153.86 48.3692C152.17 50.0594 150.294 51.1708 148.048 51.9349C145.802 52.6758 143.556 52.8611 141.31 52.8611C139.435 52.8611 137.93 52.6758 136.263 52.1201C134.758 51.7497 133.461 50.9856 132.141 50.0594C131.007 49.1332 130.08 47.9987 129.339 46.4937C128.784 44.9886 128.413 43.5068 128.413 41.446C128.413 39.3853 128.784 37.5098 129.548 36.19C130.289 34.8703 131.238 33.7588 132.35 32.8095C133.484 32.0686 134.966 31.3045 136.471 30.934C137.976 30.5636 139.458 30.1931 141.148 30.0079C142.653 29.8226 144.135 29.6374 145.64 29.4522C147.145 29.2669 148.442 29.0817 149.576 28.8965C150.711 28.526 151.637 28.1555 152.378 27.5767C153.119 27.021 153.304 26.2569 153.304 25.1455C153.304 24.0109 153.119 23.0848 152.748 22.5291C152.378 21.9734 151.822 21.3945 151.243 21.024C150.688 20.6536 149.924 20.4683 149.183 20.2831C148.442 20.0979 147.492 20.0979 146.566 20.0979C144.505 20.0979 143 20.4683 141.889 21.4177C140.754 22.3438 140.014 23.8488 139.828 25.7243H129.525C129.455 23.4089 130.196 21.3482 131.145 19.8663V19.8663ZM151.568 34.4766C151.012 34.6619 150.248 34.8471 149.507 35.0323C148.766 35.2176 148.002 35.2176 147.076 35.4028C146.335 35.588 145.385 35.588 144.644 35.7733C143.903 35.9585 143.139 36.1437 142.398 36.329C141.658 36.5142 140.893 36.8847 140.523 37.2551C139.967 37.6256 139.597 38.1813 139.203 38.7602C138.647 39.5011 138.647 40.2652 138.647 41.1914C138.647 42.1175 138.833 42.8816 139.203 43.4373C139.574 43.993 139.944 44.5719 140.523 44.9423C141.079 45.3128 141.843 45.498 142.584 45.6833C143.325 45.8685 144.089 45.8685 145.015 45.8685C147.076 45.8685 148.581 45.498 149.692 44.9423C150.827 44.2014 151.568 43.4373 152.123 42.5111C152.679 41.585 153.049 40.6357 153.049 39.7095C153.235 38.7833 153.235 38.0192 153.235 37.4635V33.5273C152.679 33.8978 152.123 34.2914 151.568 34.4766V34.4766ZM179.098 14.2398V19.4959H179.283C180.603 17.2499 182.27 15.7449 184.331 14.8187C186.391 13.8925 188.637 13.3137 190.698 13.3137C193.5 13.3137 195.746 13.6841 197.436 14.4482C199.312 15.1892 200.631 16.3237 201.557 17.6435C202.484 18.9633 203.248 20.6304 203.803 22.5059C204.174 24.3814 204.359 26.4421 204.359 28.8733V51.9118H194.055V30.7488C194.055 27.5535 193.5 25.3076 192.55 23.8257C191.624 22.3207 189.934 21.3945 187.294 21.3945C184.493 21.3945 182.432 22.5291 181.112 24.1962C179.793 25.8864 179.237 28.6881 179.237 32.4391V52.1201H168.933V14.2398H179.098V14.2398ZM227.444 20.9777C225.754 20.9777 224.457 21.3482 223.322 22.1123C222.188 22.8532 221.262 23.8025 220.521 25.0992C219.78 26.2337 219.386 27.5304 219.016 29.0354C218.645 30.5404 218.645 31.837 218.645 33.3421C218.645 34.6619 218.831 36.1437 219.016 37.4635C219.386 38.9685 219.757 40.0799 220.521 41.2145C221.262 42.3491 222.026 43.2752 223.137 44.0162C224.272 44.7571 225.568 45.1507 227.259 45.1507C229.69 45.1507 231.565 44.4098 233.07 43.09C234.39 41.7702 235.316 39.8947 235.502 37.4635H245.435C244.694 42.5111 242.818 46.2621 239.623 48.9017C236.428 51.5181 232.306 52.8379 227.259 52.8379C224.457 52.8379 221.817 52.2822 219.571 51.3329C217.14 50.4067 215.265 49.0869 213.575 47.3967C211.884 45.7064 210.588 43.6457 209.638 41.3997C208.712 38.9685 208.319 36.5374 208.319 33.7125C208.319 30.7256 208.689 28.0861 209.638 25.6549C210.564 23.2237 211.699 20.9777 213.389 19.1022C215.08 17.2267 217.14 15.9069 219.386 14.7955C221.817 13.8694 224.434 13.2905 227.444 13.2905C229.69 13.2905 231.751 13.661 233.811 14.2167C235.872 14.7724 237.748 15.7217 239.253 16.8331C240.943 17.9677 242.239 19.4495 243.189 21.325C244.115 23.0153 244.694 25.2613 244.879 27.6924H234.761C234.367 23.2237 231.936 20.9777 227.444 20.9777V20.9777ZM260.971 42.9048C262.476 44.4098 264.907 45.1507 267.709 45.1507C269.77 45.1507 271.645 44.595 273.15 43.6457C274.655 42.5111 275.582 41.3997 275.952 40.2652H284.936C283.431 44.7571 281.185 47.9524 278.198 50.0131C275.211 51.8886 271.645 53 267.339 53C264.352 53 261.712 52.4443 259.281 51.495C256.85 50.5688 254.974 49.249 253.284 47.3735C251.594 45.6833 250.297 43.6225 249.533 41.1914C248.607 38.7602 248.213 36.1437 248.213 33.1337C248.213 30.332 248.584 27.6924 249.533 25.2613C250.459 22.8301 251.779 20.7693 253.469 18.8938C255.159 17.2036 257.22 15.6986 259.466 14.7724C261.897 13.8462 264.514 13.2674 267.339 13.2674C270.534 13.2674 273.336 13.8231 275.581 15.1429C278.013 16.4626 279.888 17.9445 281.393 20.1905C282.898 22.2512 284.01 24.6824 284.774 27.2988C285.515 29.9152 285.7 32.7401 285.515 35.727H258.355C258.355 38.5981 259.466 41.3997 260.971 42.9048V42.9048ZM272.965 23.2237C271.645 21.9039 269.585 21.163 267.153 21.163C265.463 21.163 264.166 21.5334 263.032 22.0891C261.897 22.6448 260.971 23.4089 260.415 24.1498C259.86 24.8908 259.281 25.8401 259.096 26.7663C258.91 27.6924 258.725 28.4565 258.725 29.1975H275.581C275.026 26.419 274.076 24.5435 272.965 23.2237V23.2237Z" fill="#007AFF"/>
</svg>
