<svg width="116" height="116" viewBox="0 0 116 116" fill="none" xmlns="http://www.w3.org/2000/svg">
<mask id="mask0" mask-type="alpha" maskUnits="userSpaceOnUse" x="0" y="0" width="116" height="116">
<rect width="116" height="116" fill="white"/>
</mask>
<g mask="url(#mask0)">
<rect width="116" height="116" fill="#007AFF"/>
<rect width="116" height="116" fill="white" fill-opacity="0.85"/>
<path opacity="0.2" d="M-9.45653 33C-7.02534 33 -4.77938 33.1852 -2.71865 33.7409C-0.657925 34.1114 1.03233 34.8755 2.53736 35.8017C4.04238 36.7278 5.15378 38.0476 5.91787 39.7379C6.65881 41.4281 7.05243 43.4889 7.05243 45.7348C7.05243 48.3512 6.49673 50.5972 5.17694 52.2875C4.04238 53.9777 2.19004 55.4827 -0.079071 56.5941C3.11621 57.5203 5.54741 59.2106 7.02927 61.4565C8.51114 63.7025 9.46047 66.5042 9.46047 69.6994C9.46047 72.3159 8.90477 74.5618 7.95544 76.4373C7.02927 78.3128 5.52425 80.0031 3.83399 81.1145C2.14373 82.249 0.0830078 83.1752 -2.16295 83.7309C-4.40891 84.2866 -6.65487 84.6571 -8.90083 84.6571L-34 84.7034V33H-9.45653ZM-10.9616 53.9777C-8.90083 53.9777 -7.21057 53.422 -5.91393 52.4727C-4.6173 51.5234 -4.03844 49.8563 -4.03844 47.7955C-4.03844 46.661 -4.22367 45.5496 -4.59414 44.8087C-4.96461 44.0677 -5.52031 43.4889 -6.2844 42.9332C-7.02534 42.5627 -7.78942 42.1922 -8.71559 42.007C-9.64176 41.8218 -10.5911 41.8218 -11.7025 41.8218H-22.5618V54.0009C-22.5618 53.9777 -10.9616 53.9777 -10.9616 53.9777ZM-10.4059 76.09C-9.27129 76.09 -8.15989 75.9048 -7.21057 75.7195C-6.2844 75.5343 -5.33508 75.1638 -4.59414 74.585C-3.85321 74.0061 -3.27435 73.4504 -2.71865 72.5242C-2.34818 71.5981 -1.97771 70.4635 -1.97771 69.1437C-1.97771 66.5273 -2.71865 64.6518 -4.22367 63.332C-5.7287 62.1975 -7.78942 61.6418 -10.2206 61.6418H-22.5618V76.0668H-10.4059V76.09ZM25.761 75.9048C27.2661 77.4098 29.512 78.1507 32.4989 78.1507C34.5596 78.1507 36.4351 77.595 37.9402 76.6457C39.4452 75.5111 40.3713 74.3997 40.7418 73.2652H49.9109C48.4059 77.7571 46.1599 80.9524 43.173 83.0131C40.1861 84.8886 36.6204 86 32.3137 86C29.3268 86 26.6872 85.4443 24.256 84.495C21.8248 83.5688 19.9493 82.249 18.2591 80.3735C16.5688 78.6833 15.2722 76.6225 14.5081 74.1913C13.5819 71.7602 13.1883 69.1437 13.1883 66.1337C13.1883 63.332 13.5588 60.6924 14.5081 58.2612C15.4574 55.8301 16.754 53.7693 18.4443 51.8938C20.1346 50.2036 22.1953 48.6986 24.4412 47.7724C26.8724 46.8462 29.3036 46.2674 32.3137 46.2674C35.509 46.2674 38.3106 46.8231 40.7418 48.1429C43.173 49.4626 45.0485 50.9445 46.5535 53.1905C48.0585 55.2512 49.17 57.6824 49.934 60.2988C50.3045 62.9152 50.4897 65.5548 50.3045 68.5417H23.1446C23.1446 71.5981 24.256 74.3997 25.761 75.9048ZM37.5697 56.2237C36.2499 54.9039 34.1892 54.163 31.758 54.163C30.0677 54.163 28.7711 54.5334 27.6365 55.0891C26.502 55.6448 25.761 56.4089 25.0201 57.1498C24.2792 57.8908 23.8855 58.8401 23.7003 59.7663C23.5151 60.6924 23.3298 61.4565 23.3298 62.1975H40.1861C39.8157 59.419 38.8663 57.5435 37.5697 56.2237ZM21.0839 36.5657H42.0616V41.6134H21.0839V36.5657ZM64.9148 33V52.4727H65.1001C66.4198 50.2267 68.0869 48.7217 70.1477 47.7955C72.2084 46.8694 74.0839 46.2905 76.1446 46.2905C78.9463 46.2905 81.1922 46.661 82.8825 47.4251C84.5728 48.166 86.0778 49.3006 87.0039 50.6204C87.9301 51.9401 88.6942 53.6073 89.0647 55.4827C89.4351 57.3582 89.6204 59.419 89.6204 61.8502V84.8886H79.3167V63.7256C79.3167 60.5304 78.761 58.2844 77.8117 56.8025C76.8624 55.3207 75.2185 54.5334 72.7873 54.5334C69.9856 54.5334 67.9249 55.4596 66.7903 56.9646C65.4705 58.6549 64.9148 61.4565 64.9148 65.2075V84.8886H54.6112V33H64.9148ZM97.1455 52.8663C98.2801 51.1761 99.5767 50.0647 101.267 48.9301C102.957 48.0039 104.833 47.2398 106.893 46.8694C108.954 46.4989 111.015 46.3137 113.076 46.3137C114.951 46.3137 116.827 46.4989 118.887 46.6841C120.763 46.8694 122.638 47.4251 124.143 48.1892C125.834 48.9301 126.945 50.0647 128.08 51.3844C129.006 52.7042 129.585 54.5797 129.585 56.8257V76.5068C129.585 78.197 129.77 79.8873 129.955 81.3692C130.14 82.8742 130.696 84.1708 131.275 84.9349H120.786C120.415 84.5644 120.23 83.8004 120.045 83.2447C119.86 82.6889 119.86 81.9249 119.86 81.3692C118.17 83.0594 116.294 84.1708 114.048 84.9349C111.802 85.6758 109.556 85.8611 107.31 85.8611C105.435 85.8611 103.93 85.6758 102.263 85.1201C100.758 84.7497 99.4609 83.9856 98.1411 83.0594C97.0066 82.1332 96.0804 80.9987 95.3395 79.4937C94.7838 77.9886 94.4133 76.5068 94.4133 74.446C94.4133 72.3853 94.7838 70.5098 95.5479 69.19C96.2888 67.8703 97.2381 66.7588 98.3495 65.8095C99.4841 65.0686 100.966 64.3045 102.471 63.934C103.976 63.5636 105.458 63.1931 107.148 63.0079C108.653 62.8226 110.135 62.6374 111.64 62.4522C113.145 62.2669 114.442 62.0817 115.576 61.8965C116.711 61.526 117.637 61.1555 118.378 60.5767C119.119 60.021 119.304 59.2569 119.304 58.1455C119.304 57.0109 119.119 56.0848 118.748 55.5291C118.378 54.9734 117.822 54.3945 117.243 54.024C116.688 53.6536 115.924 53.4683 115.183 53.2831C114.442 53.0979 113.492 53.0979 112.566 53.0979C110.505 53.0979 109 53.4683 107.889 54.4177C106.754 55.3438 106.014 56.8488 105.828 58.7243H95.5247C95.4552 56.4089 96.1962 54.3482 97.1455 52.8663ZM117.568 67.4766C117.012 67.6619 116.248 67.8471 115.507 68.0323C114.766 68.2176 114.002 68.2176 113.076 68.4028C112.335 68.588 111.385 68.588 110.644 68.7733C109.903 68.9585 109.139 69.1437 108.398 69.329C107.658 69.5142 106.893 69.8847 106.523 70.2551C105.967 70.6256 105.597 71.1813 105.203 71.7602C104.647 72.5011 104.647 73.2652 104.647 74.1913C104.647 75.1175 104.833 75.8816 105.203 76.4373C105.574 76.993 105.944 77.5719 106.523 77.9423C107.079 78.3128 107.843 78.498 108.584 78.6833C109.325 78.8685 110.089 78.8685 111.015 78.8685C113.076 78.8685 114.581 78.498 115.692 77.9423C116.827 77.2014 117.568 76.4373 118.123 75.5111C118.679 74.585 119.049 73.6357 119.049 72.7095C119.235 71.7833 119.235 71.0192 119.235 70.4635V66.5273C118.679 66.8978 118.123 67.2914 117.568 67.4766ZM145.098 47.2398V52.4958H145.283C146.603 50.2499 148.27 48.7449 150.331 47.8187C152.391 46.8925 154.637 46.3137 156.698 46.3137C159.5 46.3137 161.746 46.6841 163.436 47.4482C165.312 48.1892 166.631 49.3237 167.557 50.6435C168.484 51.9633 169.248 53.6304 169.803 55.5059C170.174 57.3814 170.359 59.4421 170.359 61.8733V84.9118H160.055V63.7488C160.055 60.5535 159.5 58.3076 158.55 56.8257C157.624 55.3207 155.934 54.3945 153.294 54.3945C150.493 54.3945 148.432 55.5291 147.112 57.1962C145.793 58.8864 145.237 61.6881 145.237 65.4391V85.1201H134.933V47.2398H145.098ZM193.444 53.9777C191.754 53.9777 190.457 54.3482 189.322 55.1123C188.188 55.8532 187.262 56.8025 186.521 58.0992C185.78 59.2337 185.386 60.5304 185.016 62.0354C184.645 63.5404 184.645 64.837 184.645 66.3421C184.645 67.6619 184.831 69.1437 185.016 70.4635C185.386 71.9685 185.757 73.0799 186.521 74.2145C187.262 75.3491 188.026 76.2752 189.137 77.0162C190.272 77.7571 191.568 78.1507 193.259 78.1507C195.69 78.1507 197.565 77.4098 199.07 76.09C200.39 74.7702 201.316 72.8947 201.502 70.4635H211.435C210.694 75.5111 208.818 79.2621 205.623 81.9017C202.428 84.5181 198.306 85.8379 193.259 85.8379C190.457 85.8379 187.817 85.2822 185.571 84.3329C183.14 83.4067 181.265 82.0869 179.575 80.3967C177.884 78.7064 176.588 76.6457 175.638 74.3997C174.712 71.9685 174.319 69.5374 174.319 66.7125C174.319 63.7256 174.689 61.0861 175.638 58.6549C176.564 56.2237 177.699 53.9777 179.389 52.1022C181.08 50.2267 183.14 48.9069 185.386 47.7955C187.817 46.8694 190.434 46.2905 193.444 46.2905C195.69 46.2905 197.751 46.661 199.811 47.2167C201.872 47.7724 203.748 48.7217 205.253 49.8331C206.943 50.9677 208.239 52.4495 209.189 54.325C210.115 56.0153 210.694 58.2612 210.879 60.6924H200.761C200.367 56.2237 197.936 53.9777 193.444 53.9777ZM226.971 75.9048C228.476 77.4098 230.907 78.1507 233.709 78.1507C235.77 78.1507 237.645 77.595 239.15 76.6457C240.655 75.5111 241.582 74.3997 241.952 73.2652H250.936C249.431 77.7571 247.185 80.9524 244.198 83.0131C241.211 84.8886 237.645 86 233.339 86C230.352 86 227.712 85.4443 225.281 84.495C222.85 83.5688 220.974 82.249 219.284 80.3735C217.594 78.6833 216.297 76.6225 215.533 74.1913C214.607 71.7602 214.213 69.1437 214.213 66.1337C214.213 63.332 214.584 60.6924 215.533 58.2612C216.459 55.8301 217.779 53.7693 219.469 51.8938C221.159 50.2036 223.22 48.6986 225.466 47.7724C227.897 46.8462 230.514 46.2674 233.339 46.2674C236.534 46.2674 239.336 46.8231 241.582 48.1429C244.013 49.4626 245.888 50.9445 247.393 53.1905C248.898 55.2512 250.01 57.6824 250.774 60.2988C251.515 62.9152 251.7 65.7401 251.515 68.727H224.355C224.355 71.5981 225.466 74.3997 226.971 75.9048ZM238.965 56.2237C237.645 54.9039 235.585 54.163 233.153 54.163C231.463 54.163 230.166 54.5334 229.032 55.0891C227.897 55.6448 226.971 56.4089 226.415 57.1498C225.86 57.8908 225.281 58.8401 225.096 59.7663C224.91 60.6924 224.725 61.4565 224.725 62.1975H241.582C241.026 59.419 240.076 57.5435 238.965 56.2237Z" fill="#007AFF"/>
</g>
</svg>
