<svg width="306" height="75" viewBox="0 0 306 75" fill="none" xmlns="http://www.w3.org/2000/svg">
<g opacity="0.2">
<path d="M302.713 51.7624C301.764 51.0747 301.012 50.9776 300.391 52.2857C289.733 75.3341 271.784 63.8267 273.582 64.8395C277.571 63.0082 288.033 54.6387 286.464 43.0327C285.516 35.9384 279.434 32.7997 272.961 33.9433C261.682 35.9055 257.562 48.0676 259.655 58.8238C260.014 60.6873 260.668 62.1912 261.355 63.6951C248.637 74.0589 243.57 54.4429 242.981 52.0891C242.948 51.9583 252.822 43.7517 255.568 24.1686C258.445 3.66906 251.906 -0.0907478 245.204 0.0400605C232.813 0.268788 229.478 26.13 233.957 47.6752C233.598 47.7731 231.832 48.7538 229.021 48.8525C226.994 42.4765 218.33 36.8862 216.074 39.0441C210.418 44.4387 217.447 54.9654 222.417 55.7831C219.441 74.1247 200.806 69.58 204.271 46.5966C210.32 35.3493 214.962 18.5775 214.112 8.47533C213.818 4.91062 211.17 0.105838 205.187 0.334566C193.679 0.792022 192.436 26.6532 193.776 45.0269C193.711 44.5695 193.057 47.2499 188.349 48.5909C187.238 42.4115 177.266 36.1671 174.912 39.1749C170.531 44.766 178.149 54.7374 181.745 55.4236C178.77 73.7651 160.135 69.2205 163.6 46.2371C169.682 34.9898 174.291 18.2508 173.474 8.14868C173.18 4.58472 170.531 -0.221556 164.548 0.00791905C153.04 0.465374 151.797 26.3266 153.138 44.6995C153.073 44.2421 152.419 47.0212 147.514 48.3293C147.351 40.2864 137.347 36.6245 134.928 39.1749C130.645 43.7517 135.908 53.1348 140.78 55.4236C137.805 73.7651 119.169 69.2205 122.635 46.2371C128.683 34.9898 133.326 18.2179 132.476 8.11579C132.214 4.58472 129.566 -0.221556 123.582 0.00791905C112.074 0.465374 111.159 27.6339 112.5 46.0076C108.707 62.257 95.9894 82.5271 97.6563 41.889C97.82 39.0441 97.9837 37.9648 96.5777 36.8862C95.4991 36.0692 93.0795 36.4608 91.7714 36.4937C90.1696 36.5595 89.745 37.5073 89.4176 38.9133C88.6006 42.5752 88.4369 46.1384 88.3061 51.0097C88.2411 53.2985 88.0445 54.345 87.1617 57.4507C86.2789 60.5565 81.3097 66.2126 78.5635 65.2648C74.7708 63.9568 76.0131 53.2656 76.7322 45.9097C77.3212 40.0906 75.4248 37.5081 70.5864 36.5588C67.7415 35.9712 66.0089 36.0692 63.0668 35.1206C60.2548 34.2386 59.6337 28.942 53.6837 30.7075C50.4143 31.6882 52.5065 38.5859 51.7216 43.7196C47.8639 68.926 39.8539 69.6122 36.127 57.3849C52.866 16.3216 40.9333 0.13798 33.9691 0.13798C26.7111 0.13798 18.4066 5.14084 21.9048 37.1807C20.205 36.6903 19.6818 36.4287 17.7854 36.4287C7.22511 36.3958 0 44.9619 0 55.5215C0 66.0818 7.2251 74.6479 17.8183 74.6479C24.0628 74.6479 28.4437 71.803 31.7782 67.4221C33.9362 70.5286 36.5845 74.7129 41.4229 74.5171C55.8081 73.961 59.9932 44.4387 60.4835 42.7718C62.0203 42.9998 63.4914 43.458 64.8974 43.6867C67.2519 44.0462 67.4478 44.9948 67.382 47.3486C66.7616 67.4221 70.4556 74.4521 78.858 74.4521C83.5327 74.4521 87.7178 69.8416 90.5949 66.5722C92.7528 71.0189 96.1524 74.3205 100.763 74.4513C111.879 74.7129 116.162 56.9933 115.769 59.3149C115.475 61.1447 119.365 74.3205 130.841 74.3863C145.03 74.4513 147.678 58.8567 147.973 56.2413C148.038 55.7831 148.006 55.7181 147.973 56.2413V56.4043C152.484 55.5544 154.805 53.1677 154.805 53.1677C154.805 53.1677 158.434 74.6479 171.807 74.4184C185.701 74.1568 188.349 60.0669 188.676 57.3199C188.741 56.7316 188.709 56.6659 188.676 57.3199V57.3849C194.038 55.4236 195.444 53.4951 195.444 53.4951C195.444 53.4951 198.321 74.55 212.445 74.7458C225.032 74.9095 229.707 61.9954 229.74 56.6008C231.865 56.633 235.788 55.3256 235.69 55.2606C235.69 55.2606 240.3 73.6672 253.181 74.615C259.23 75.0725 263.774 71.2147 266.357 69.45C272.438 74.3863 292.676 80.6636 305.459 58.9875C307.29 55.9139 303.399 52.2199 302.713 51.7617V51.7624ZM17.2951 67.4871C11.1157 67.4871 7.15933 61.7659 7.15933 55.6194C7.15933 49.4729 10.7891 43.751 16.9685 43.751C19.7468 43.751 21.2836 44.0455 23.4745 45.9411C23.8662 47.4786 24.9784 51.0419 25.5338 52.6766C26.2529 54.8346 27.1356 56.698 27.9855 58.6923C26.7111 63.8573 22.6568 67.4871 17.2951 67.4871V67.4871ZM32.3343 46.1055C32.0727 45.6802 32.1377 45.9411 31.844 45.5494C30.7325 42.4765 28.5416 35.6102 28.28 27.7968C27.9863 18.9691 29.4573 8.60539 33.8054 8.60539C36.7482 8.60539 39.8868 29.5945 32.3343 46.1055V46.1055ZM119.332 36.9183C118.646 31.6875 118.613 8.31089 124.204 8.96493C127.31 10.2072 122.242 32.2428 119.332 36.9183ZM160.298 36.9183C159.612 31.6875 159.579 8.31089 165.17 8.96493C168.276 10.2072 163.208 32.2428 160.298 36.9183ZM200.937 37.2449C200.25 32.0141 200.217 8.63828 205.808 9.29157C208.914 10.5017 203.846 32.5702 200.937 37.2449ZM245.793 7.55892C250.926 7.03569 250.697 29.4316 240.431 43.5551C239.09 38.4551 237.064 9.32446 245.793 7.55892ZM267.371 55.7824C265.736 47.4457 269.986 41.9854 274.367 41.3972C275.904 41.1684 278.127 42.1491 278.552 44.0133C279.271 47.5115 278.454 52.7095 268.613 59.2805C268.646 59.3134 267.73 57.6137 267.371 55.7824V55.7824ZM93.4719 30.0856C96.9701 30.0856 99.8142 27.2415 99.8142 23.7433C99.8142 20.2451 96.9701 17.4009 93.4719 17.4009C89.9737 17.4009 87.1288 20.2451 87.1288 23.7433C87.1288 27.2415 89.9737 30.0856 93.4719 30.0856Z" fill="#EA4C89"/>
</g>
</svg>
