<svg width="36" height="36" viewBox="0 0 36 36" fill="none" xmlns="http://www.w3.org/2000/svg">
<path d="M-0.000488281 18C-0.000488281 8.0589 8.05841 0 17.9995 0C27.9406 0 35.9995 8.0589 35.9995 18C35.9995 27.9411 27.9406 36 17.9995 36C8.05841 36 -0.000488281 27.9411 -0.000488281 18Z" fill="#EA4C89"/>
<path d="M18 7C11.9246 7 7 11.9252 7 18C7 24.0748 11.9246 28.9999 18 28.9999C24.0754 28.9999 29 24.0747 29 17.9999C29 11.9252 24.0754 7 18 7ZM25.218 12.324C26.4004 13.8255 27.1244 15.7009 27.1814 17.7421C24.7134 17.3097 22.5849 17.2966 20.7458 17.5881C20.5127 17.0532 20.2728 16.5335 20.0267 16.0303C21.9991 15.219 23.7681 14.0358 25.218 12.324ZM23.9523 11.0095C22.6571 12.5818 21.0311 13.6639 19.1914 14.4003C18.0137 12.2182 16.8024 10.3997 15.8344 9.07215C16.5294 8.90231 17.2533 8.81161 17.9993 8.81161C20.2701 8.81085 22.3477 9.64065 23.9523 11.0095ZM14.0503 9.70529C14.986 10.9544 16.2311 12.7639 17.4486 14.9825C14.8678 15.6913 11.981 15.8825 9.05908 15.8907C9.70393 13.1572 11.5698 10.8912 14.0503 9.70529ZM8.81221 17.9992L8.81977 17.7022H8.86923C12.1431 17.7022 15.3936 17.4877 18.3079 16.629C18.5252 17.071 18.7389 17.5248 18.948 17.9916C15.1138 19.1157 12.7234 21.6388 11.0851 24.0395C9.67161 22.4247 8.81221 20.3106 8.81221 17.9992ZM12.4243 25.295C13.9753 22.9589 16.1368 20.6475 19.6541 19.6767C20.4756 21.7819 21.1459 24.0795 21.5007 26.4926C20.4213 26.9408 19.2396 27.1883 18.0007 27.1883C15.9044 27.1883 13.9712 26.4823 12.4243 25.295ZM23.1906 25.5769C22.8145 23.3721 22.1985 21.269 21.4567 19.3193C23.0641 19.1151 24.912 19.1646 27.0543 19.5585C26.626 22.0485 25.1946 24.1998 23.1906 25.5769Z" fill="white"/>
</svg>
