<svg width="54" height="54" viewBox="0 0 54 54" fill="none" xmlns="http://www.w3.org/2000/svg">
<mask id="mask0_352_6681" style="mask-type:alpha" maskUnits="userSpaceOnUse" x="0" y="0" width="54" height="54">
<circle r="27" transform="matrix(1 5.56363e-08 5.56363e-08 -1 27 27)" fill="#9445FA"/>
</mask>
<g mask="url(#mask0_352_6681)">
<circle r="27" transform="matrix(1 5.56363e-08 5.56363e-08 -1 27 27)" fill="#9445FA"/>
<path d="M-3.00027 40.9999L55 13L63.0338 44.1183L11.8799 61.418L-3.00027 40.9999Z" fill="#353535"/>
<path d="M25 15.5652C25 12.8003 22.3239 10.8247 19.6816 11.639L-2.00095 18.3213C-3.491 18.7805 -4.59268 20.0437 -4.84513 21.5823L-8.84064 45.934C-9.3543 49.0646 -6.27666 51.5714 -3.31471 50.4349L22.3634 40.5822C23.9516 39.9728 25 38.4476 25 36.7465V15.5652Z" fill="#702CDF"/>
<path d="M32.9855 36.3226C35.7955 37.1063 38.4722 34.7153 38.0094 31.835L36.1664 20.3654C35.8548 18.4261 34.1812 17 32.2171 17H20C17.7909 17 16 18.7909 16 21V28.5484C16 30.3437 17.1961 31.9191 18.9254 32.4014L32.9855 36.3226Z" fill="white"/>
</g>
</svg>
