<svg width="18" height="15" viewBox="0 0 18 15" fill="none" xmlns="http://www.w3.org/2000/svg">
<path d="M14.9205 3.06089C14.5784 2.72455 14.1722 2.45775 13.7252 2.27572C13.2782 2.09369 12.799 2 12.3151 2C11.8312 2 11.3521 2.09369 10.905 2.27572C10.458 2.45775 10.0518 2.72455 9.70976 3.06089L8.99982 3.75857L8.28988 3.06089C7.5989 2.38184 6.66172 2.00035 5.68453 2.00035C4.70733 2.00035 3.77016 2.38184 3.07917 3.06089C2.38819 3.73994 2 4.66092 2 5.62124C2 6.58157 2.38819 7.50255 3.07917 8.1816L3.78911 8.87928L7.59798 12.6224C8.37611 13.3871 9.62353 13.3871 10.4017 12.6224L14.2105 8.87928L14.9205 8.1816C15.2627 7.84543 15.5342 7.44628 15.7194 7.00697C15.9047 6.56765 16 6.09678 16 5.62124C16 5.14571 15.9047 4.67484 15.7194 4.23552C15.5342 3.79621 15.2627 3.39706 14.9205 3.06089Z" stroke="#ED2F68" stroke-width="2.4" stroke-linecap="round" stroke-linejoin="round"/>
</svg>
