<svg width="54" height="54" viewBox="0 0 54 54" fill="none" xmlns="http://www.w3.org/2000/svg">
<circle r="27" transform="matrix(1 5.56363e-08 5.56363e-08 -1 27 27)" fill="#2E2E31"/>
<path d="M17.835 25.2717C17.835 23.9868 18.4801 22.7868 19.5542 22.0741L24.9595 18.4872C26.2564 17.6267 27.9459 17.6267 29.2428 18.4872L34.6481 22.0741C35.7222 22.7868 36.3673 23.9868 36.3673 25.2717V30.5167C36.3673 32.6392 34.6387 34.3598 32.5064 34.3598H21.6959C19.5635 34.3598 17.835 32.6392 17.835 30.5167V25.2717Z" stroke="#F02424" stroke-width="3"/>
<path d="M17.835 25.2717C17.835 23.9868 18.4801 22.7868 19.5542 22.0741L24.9595 18.4872C26.2564 17.6267 27.9459 17.6267 29.2428 18.4872L34.6481 22.0741C35.7222 22.7868 36.3673 23.9868 36.3673 25.2717V30.5167C36.3673 32.6392 34.6387 34.3598 32.5064 34.3598H21.6959C19.5635 34.3598 17.835 32.6392 17.835 30.5167V25.2717Z" stroke="#00E540" stroke-width="3"/>
</svg>
