<svg width="54" height="54" viewBox="0 0 54 54" fill="none" xmlns="http://www.w3.org/2000/svg">
<circle r="27" transform="matrix(1 5.56363e-08 5.56363e-08 -1 27 27)" fill="#2E2E31"/>
<path d="M26.7755 33.2035C26.1897 33.7893 25.24 33.7893 24.6542 33.2035C24.0684 32.6177 24.0684 31.6679 24.6542 31.0822L26.7755 33.2035ZM24.6542 22.9178C24.0684 22.332 24.0684 21.3822 24.6542 20.7964C25.24 20.2107 26.1897 20.2107 26.7755 20.7964L24.6542 22.9178ZM30.4031 26.5454L29.3425 27.6061L30.4031 26.5454ZM31.4638 28.5152L26.7755 33.2035L24.6542 31.0822L29.3425 26.3939L31.4638 28.5152ZM29.3425 27.6061L24.6542 22.9178L26.7755 20.7964L31.4638 25.4847L29.3425 27.6061ZM29.3425 26.3939C29.0077 26.7286 29.0077 27.2713 29.3425 27.6061L31.4638 25.4847C32.3006 26.3216 32.3006 27.6784 31.4638 28.5152L29.3425 26.3939Z" fill="white"/>
</svg>
