<svg width="54" height="54" viewBox="0 0 54 54" fill="none" xmlns="http://www.w3.org/2000/svg">
<circle r="27" transform="matrix(1 5.56363e-08 5.56363e-08 -1 27 27)" fill="#6BACF8"/>
<path fill-rule="evenodd" clip-rule="evenodd" d="M32.6462 30.2831C33.2396 29.6226 33.8235 28.7598 34.325 27.9324C34.401 27.8071 34.5769 27.7938 34.6586 27.9154C35.1399 28.6321 35.4752 29.7052 35.4752 30.1461C35.4752 30.8003 35.2043 31.7336 33.8498 32.0187C33.0671 32.1834 32.0069 32.2497 31.0122 32.2752C30.8546 32.2792 30.7859 32.0697 30.9098 31.9722C31.5112 31.499 32.072 30.9221 32.6462 30.2831ZM22.9855 32.2761C23.1431 32.2799 23.2117 32.0705 23.0878 31.973C22.4859 31.4997 21.9248 30.9225 21.3503 30.2831C20.6936 29.5522 20.1751 28.7242 19.6474 27.9025C19.5705 27.7828 19.4005 27.7727 19.3201 27.8901C19.1884 28.0825 19.0672 28.3022 18.9605 28.5292C18.67 29.1473 18.4863 29.8198 18.4863 30.1461C18.4863 30.8003 18.7572 31.7336 20.1117 32.0187C20.9039 32.1854 21.9804 32.2513 22.9855 32.2761ZM19.5999 29.4111C19.5425 29.5737 19.4971 29.7267 19.4653 29.8583C19.4457 29.9391 19.4324 30.007 19.4243 30.0605C19.4203 30.087 19.4179 30.1079 19.4165 30.1235C19.4152 30.1383 19.4151 30.1456 19.4151 30.1461C19.4151 30.3601 19.461 30.5598 19.5636 30.7117C19.6502 30.8398 19.835 31.0227 20.3053 31.1217C20.6606 31.1964 20.8218 31.2172 21.2727 31.2544C20.4987 30.7117 20.0692 30.0216 19.5999 29.4111Z" fill="white"/>
<path d="M19.3141 25.0341C19.752 25.915 20.9601 28.2366 22.1608 29.5729C23.7403 31.3308 24.9085 32.2857 26.9982 32.2857C29.088 32.2857 30.2562 31.3308 31.8357 29.5729C33.0364 28.2366 34.2445 25.915 34.6823 25.0341C34.7784 24.8408 35.0153 24.761 35.2103 24.8573L35.3056 24.9043C35.3926 24.9473 35.4948 24.9006 35.5038 24.805C35.5113 24.7248 35.514 24.6232 35.5013 24.5104C35.5005 24.503 35.4996 24.4956 35.4986 24.4882C35.4919 24.4364 35.4822 24.3851 35.4694 24.3345C35.3803 23.9827 35.1346 23.7057 34.8155 23.535C34.5589 23.3978 33.8093 23.3439 33.4224 23.3439C31.9609 23.3439 31.868 23.5492 31.5253 24.307C31.4519 24.4691 31.3672 24.6565 31.2552 24.8725C30.8804 25.5953 29.7846 27.624 29.088 27.624C28.3914 27.624 28.4267 25.2278 28.6623 24.4522C28.7784 24.07 28.8558 24.0318 29.0106 23.8407C29.1654 23.6496 29.043 23.3222 28.8171 23.2293C28.3527 23.0382 27.8109 23 26.9982 23C26.1855 23 25.6438 23.0382 25.1794 23.2293C24.9534 23.3222 24.8311 23.6496 24.9859 23.8407C25.0094 23.8697 25.0311 23.8952 25.0515 23.9189C25.0674 23.9375 25.0834 23.956 25.0991 23.9748C25.1865 24.0793 25.2502 24.1758 25.3342 24.4522C25.5698 25.2278 25.6051 27.624 24.9085 27.624C24.2119 27.624 23.116 25.5953 22.7413 24.8725C22.5638 24.5302 22.4548 24.2599 22.3512 24.0481C22.0838 23.5011 21.8529 23.3439 20.5741 23.3439C20.1871 23.3439 19.4375 23.3978 19.181 23.535C18.8656 23.7037 18.6213 23.9766 18.5299 24.3233C18.4809 24.5096 18.4812 24.6824 18.4927 24.805C18.5017 24.9006 18.6038 24.9473 18.6908 24.9043L18.7861 24.8573C18.9812 24.761 19.218 24.8408 19.3141 25.0341Z" fill="white"/>
<path d="M20.3053 31.1217C20.6606 31.1964 20.8218 31.2172 21.2727 31.2544C20.4987 30.7117 20.0692 30.0216 19.5999 29.4111C19.5425 29.5737 19.4971 29.7267 19.4653 29.8583C19.4457 29.9391 19.4324 30.007 19.4243 30.0605C19.4203 30.087 19.4179 30.1079 19.4165 30.1235C19.4152 30.1383 19.4151 30.1456 19.4151 30.1461C19.4151 30.3601 19.461 30.5598 19.5636 30.7117C19.6502 30.8398 19.835 31.0227 20.3053 31.1217Z" fill="white"/>
<path d="M40 32.0398V18.869C40 16.7322 38.2678 15 36.131 15H17.869C15.7322 15 14 16.7322 14 18.869V32.0398C14 35.4437 16.2244 38.4479 19.4802 39.4411L25.4542 41.2635C26.4618 41.5709 27.5382 41.5709 28.5458 41.2635L34.5198 39.4411C37.7756 38.4479 40 35.4437 40 32.0398Z" stroke="white" stroke-width="1.94444"/>
<path d="M40 32.0398V18.869C40 16.7322 38.2678 15 36.131 15H17.869C15.7322 15 14 16.7322 14 18.869V32.0398C14 35.4437 16.2244 38.4479 19.4802 39.4411L25.4542 41.2635C26.4618 41.5709 27.5382 41.5709 28.5458 41.2635L34.5198 39.4411C37.7756 38.4479 40 35.4437 40 32.0398Z" stroke="white" stroke-width="1.94444"/>
</svg>
