<svg width="36" height="36" viewBox="0 0 36 36" fill="none" xmlns="http://www.w3.org/2000/svg">
<mask id="mask0_192:4958" style="mask-type:alpha" maskUnits="userSpaceOnUse" x="-1" y="0" width="37" height="36">
<path d="M-0.000488281 18C-0.000488281 8.0589 8.05841 0 17.9995 0C27.9406 0 35.9995 8.0589 35.9995 18C35.9995 27.9411 27.9406 36 17.9995 36C8.05841 36 -0.000488281 27.9411 -0.000488281 18Z" fill="#31BCCF"/>
</mask>
<g mask="url(#mask0_192:4958)">
<path fill-rule="evenodd" clip-rule="evenodd" d="M17.8211 5.06448C17.755 5.10078 17.6607 5.15597 17.6117 5.18712C17.5627 5.21831 17.4197 5.2995 17.2941 5.36756C17.1684 5.43565 16.1144 6.03129 14.9519 6.69125C13.7895 7.35118 11.8786 8.43447 10.7057 9.09861C9.53269 9.76272 8.11028 10.5685 7.54474 10.8891L6.51649 11.4722L6.50826 17.9994L6.5 24.5267L8.41243 25.6071C9.46425 26.2013 11.0581 27.1036 11.9544 27.6122C12.8507 28.1208 13.6561 28.5769 13.7443 28.6258C14.0939 28.8196 14.9759 29.3183 16.0134 29.9088C17.695 30.8657 17.9378 30.9998 17.9897 31C18.0161 31.0001 18.4788 30.7502 19.0179 30.4446C20.0449 29.8624 22.5507 28.443 26.3008 26.3192C27.5261 25.6252 28.6657 24.9789 28.8333 24.8828C29.0009 24.7867 29.2194 24.6624 29.319 24.6064L29.5 24.5047L29.4904 17.9872L29.4807 11.4696L28.1859 10.7311C27.4737 10.325 26.8482 9.9705 26.7959 9.94338C26.5754 9.8292 26.313 9.68011 26.2187 9.61549C26.1631 9.57739 26.1096 9.5462 26.0997 9.5462C26.0898 9.5462 25.2552 9.07608 24.245 8.50148C23.2347 7.92689 22.4011 7.45677 22.3924 7.45677C22.3838 7.45677 22.3067 7.41352 22.2213 7.36069C22.1359 7.30782 21.9862 7.22103 21.8888 7.16775C21.7914 7.11451 20.9834 6.65681 20.0932 6.15061C17.7737 4.83166 18.0259 4.95225 17.8211 5.06448ZM18.8174 6.99123C19.1525 7.17898 19.958 7.63511 20.6073 8.00483C21.6687 8.60916 22.0135 8.80393 22.5119 9.0807C22.596 9.12738 23.5065 9.64418 24.5354 10.2291C25.5642 10.8141 26.5066 11.347 26.6295 11.4135C26.7524 11.4799 26.8958 11.5627 26.9482 11.5975C27.0006 11.6323 27.0691 11.6711 27.1005 11.6836C27.1319 11.6963 27.3719 11.8293 27.6337 11.9794L28.1097 12.2522L28.1194 17.9836L28.129 23.7151L26.2723 24.7687C25.2512 25.3482 24.3043 25.8859 24.1681 25.9636C23.635 26.2678 19.3491 28.696 18.6844 29.0704L17.9801 29.4671L17.8465 29.3894C17.6492 29.2745 14.879 27.7002 14.7234 27.6144C14.4636 27.4713 13.3219 26.8257 12.4956 26.3547C11.7498 25.9297 10.5765 25.2666 10.3369 25.1349C10.2884 25.1082 10.2229 25.0677 10.1915 25.0449C10.1601 25.0222 10.0401 24.9537 9.92495 24.8927C9.6116 24.7269 7.97093 23.7959 7.91594 23.7527C7.87797 23.7228 7.8702 22.5411 7.87785 17.9849L7.88749 12.2547L8.15407 12.1068C8.30069 12.0255 9.32894 11.4431 10.4391 10.8127C11.5492 10.1823 12.5206 9.6319 12.5978 9.58967C12.675 9.54743 12.8075 9.47001 12.8922 9.41762C12.9769 9.3652 13.054 9.32233 13.0635 9.32233C13.073 9.32233 13.1634 9.27353 13.2642 9.21387C13.517 9.0644 17.4643 6.82867 17.7697 6.66196C18.0077 6.53208 18.0204 6.52936 18.1124 6.58849C18.165 6.62226 18.4823 6.80352 18.8174 6.99123ZM17.6132 8.13874C17.3958 8.26758 16.6395 8.70602 15.9326 9.11301L14.6473 9.85305L14.6475 18.0107L14.6478 26.1684L14.7713 26.2489C15.1659 26.506 15.9264 26.9813 15.9687 26.9972C16.0093 27.0125 16.0183 26.2684 16.0183 22.9076V18.7994H18.5699H21.1214V17.9785V17.1577H18.5697H16.0179L16.0276 13.9078L16.0373 10.6579L17.0391 10.1172L18.041 9.57653L19.7376 10.5757C21.072 11.3615 21.441 11.5634 21.4659 11.5213C21.4833 11.4918 21.6677 11.2159 21.8757 10.9081C22.1529 10.4979 22.2425 10.3375 22.2113 10.3075C22.1879 10.2851 21.7146 10.0061 21.1595 9.68765C20.6045 9.36916 19.6817 8.83766 19.1089 8.50652C17.8878 7.80055 18.097 7.852 17.6132 8.13874ZM12.6574 11.1959L11.9434 11.6066L11.9404 14.9325C11.9387 16.7617 11.9315 18.2416 11.9243 18.2211C11.9172 18.2006 11.5559 16.9833 11.1216 15.516C10.6872 14.0487 10.3273 12.8425 10.3218 12.8356C10.3162 12.8287 10.0319 12.982 9.6899 13.1764L9.06807 13.5299L9.0584 18.2884L9.04873 23.0469L9.64869 23.3834L10.2487 23.7199L10.268 20.4108C10.2787 18.5908 10.2915 17.1335 10.2966 17.1723C10.3016 17.2112 10.3383 17.3539 10.3781 17.4895C10.4179 17.6251 10.5743 18.1978 10.7256 18.7621C10.8771 19.3264 11.0916 20.1239 11.2023 20.5344C11.313 20.9448 11.5188 21.7087 11.6594 22.232C11.8001 22.7553 12.0218 23.578 12.1521 24.0603L12.3891 24.9371L12.6518 25.089C12.7963 25.1725 13.0301 25.3041 13.1715 25.3814L13.4286 25.5218V18.1497C13.4286 14.095 13.4157 10.7792 13.4 10.7814C13.3844 10.7836 13.0502 10.9701 12.6574 11.1959ZM22.8453 10.8241C22.7978 10.8835 22.2532 11.7395 22.1946 11.8469C22.153 11.9231 22.1937 11.9544 22.9404 12.4208C23.3748 12.692 23.7858 12.9546 23.8539 13.0043L23.9777 13.0946V19.0438C23.9777 22.3159 23.9905 24.9924 24.0063 24.9915C24.022 24.9906 24.3519 24.8076 24.7394 24.5848L25.4439 24.1796L25.4629 19.0447L25.482 13.9098L25.7486 14.0896C26.5812 14.6511 27.3494 15.1632 27.3754 15.174C27.3918 15.1808 27.4052 14.8198 27.4051 14.3718L27.405 13.5572L27.2242 13.4468C26.9085 13.2541 24.3679 11.6818 23.6272 11.2208C22.8403 10.7311 22.8968 10.7597 22.8453 10.8241Z" fill="white"/>
<path d="M29.7562 0H6.24375C2.79542 0 0 2.79542 0 6.24375V29.7562C0 33.2046 2.79542 36 6.24375 36H29.7562C33.2046 36 36 33.2046 36 29.7562V6.24375C36 2.79542 33.2046 0 29.7562 0Z" fill="#FEDA03"/>
<path d="M24.8403 17.8677C25.9743 17.5729 26.9832 16.7247 26.9832 15.0194C26.9832 12.1801 24.5725 11.5195 21.483 11.5195H9.1796V24.3052H14.3582V19.9658H20.5009C21.4475 19.9658 22.001 20.3409 22.001 21.2695V24.3052H27.1796V21.1088C27.1796 19.3678 26.1975 18.2693 24.8403 17.8677ZM20.5902 16.5195H14.3582V15.2694H20.5902C21.2688 15.2694 21.6795 15.3587 21.6795 15.8944C21.6795 16.4302 21.2688 16.5195 20.5905 16.5195H20.5902Z" fill="black"/>
</g>
</svg>
