<svg width="54" height="54" viewBox="0 0 54 54" fill="none" xmlns="http://www.w3.org/2000/svg">
<g clip-path="url(#clip0)">
<rect width="54" height="54" fill="#28282B"/>
<path d="M-24.4964 94.2329C-3.93326 106.105 22.3607 99.0596 34.2329 78.4964C46.105 57.9333 39.0596 31.6393 18.4964 19.7671C-2.06673 7.89499 -28.3607 14.9404 -40.2329 35.5036C-52.105 56.0667 -45.0596 82.3607 -24.4964 94.2329Z" fill="#868686"/>
<path d="M34.2027 18.537C27.544 19.165 22.2144 21.4156 17.076 25.7003C16.1077 26.1086 16.131 27.4853 17.0994 27.8586L23.3293 30.2736C23.6327 30.3903 23.8777 30.6353 23.9943 30.9386L26.3977 37.157C26.771 38.137 28.1593 38.1603 28.5677 37.192C32.8468 32.0561 35.102 26.7289 35.7427 20.077C36.1277 19.1086 35.1593 18.1403 34.2027 18.537Z" fill="white"/>
</g>
<defs>
<clipPath id="clip0">
<rect width="54" height="54" rx="27" transform="matrix(1 5.56363e-08 5.56363e-08 -1 0 54)" fill="white"/>
</clipPath>
</defs>
</svg>
