<svg width="142" height="46" viewBox="0 0 142 46" fill="none" xmlns="http://www.w3.org/2000/svg">
<rect opacity="0.2" width="142" height="46" rx="15" fill="white"/>
<path d="M61.5 20.738C60.497 20.738 59.698 21.537 59.698 22.54C59.698 23.543 60.497 24.342 61.5 24.342C62.503 24.342 63.302 23.543 63.302 22.54C63.302 21.537 62.503 20.738 61.5 20.738ZM68.3 20.738C67.297 20.738 66.498 21.537 66.498 22.54C66.498 23.543 67.297 24.342 68.3 24.342C69.303 24.342 70.102 23.543 70.102 22.54C70.102 21.537 69.303 20.738 68.3 20.738ZM75.1 20.738C74.097 20.738 73.298 21.537 73.298 22.54C73.298 23.543 74.097 24.342 75.1 24.342C76.103 24.342 76.902 23.543 76.902 22.54C76.902 21.537 76.103 20.738 75.1 20.738ZM81.9 20.738C80.897 20.738 80.098 21.537 80.098 22.54C80.098 23.543 80.897 24.342 81.9 24.342C82.903 24.342 83.702 23.543 83.702 22.54C83.702 21.537 82.903 20.738 81.9 20.738ZM93.205 27.215H98.985V29H90.995C90.995 28.2747 91.1083 27.6117 91.335 27.011C91.5617 26.4103 91.8507 25.906 92.202 25.498C92.5647 25.09 92.9613 24.716 93.392 24.376C93.834 24.0247 94.2703 23.7073 94.701 23.424C95.143 23.1407 95.5397 22.863 95.891 22.591C96.2537 22.319 96.5483 22.013 96.775 21.673C97.0017 21.333 97.115 20.9703 97.115 20.585C97.115 20.0183 96.928 19.565 96.554 19.225C96.18 18.885 95.6587 18.715 94.99 18.715C94.2533 18.715 93.647 18.987 93.171 19.531C92.9783 19.7463 92.8197 20.0127 92.695 20.33L91.165 19.65C91.3123 19.1513 91.556 18.698 91.896 18.29C92.644 17.3833 93.6753 16.93 94.99 16.93C96.1573 16.93 97.115 17.2813 97.863 17.984C98.611 18.6867 98.985 19.5537 98.985 20.585C98.985 21.129 98.8717 21.6333 98.645 22.098C98.4183 22.5627 98.1293 22.9537 97.778 23.271C97.438 23.577 97.0413 23.8943 96.588 24.223C96.146 24.5403 95.7153 24.835 95.296 25.107C94.888 25.3677 94.4857 25.685 94.089 26.059C93.7037 26.433 93.409 26.8183 93.205 27.215ZM103.262 24.104C102.842 24.4667 102.633 24.937 102.633 25.515C102.633 26.093 102.842 26.5633 103.262 26.926C103.681 27.2887 104.265 27.47 105.013 27.47C105.761 27.47 106.344 27.2887 106.764 26.926C107.183 26.5633 107.393 26.093 107.393 25.515C107.393 24.937 107.183 24.4667 106.764 24.104C106.344 23.7413 105.761 23.56 105.013 23.56C104.265 23.56 103.681 23.7413 103.262 24.104ZM103.636 19.072C103.307 19.3667 103.143 19.7577 103.143 20.245C103.143 20.7323 103.307 21.1233 103.636 21.418C103.964 21.7127 104.423 21.86 105.013 21.86C105.602 21.86 106.061 21.7127 106.39 21.418C106.718 21.1233 106.883 20.7323 106.883 20.245C106.883 19.7577 106.718 19.3667 106.39 19.072C106.061 18.7773 105.602 18.63 105.013 18.63C104.423 18.63 103.964 18.7773 103.636 19.072ZM100.763 25.6C100.763 24.6707 101.103 23.9 101.783 23.288C102.077 23.016 102.417 22.795 102.803 22.625C102.508 22.4663 102.253 22.2737 102.038 22.047C101.528 21.5143 101.273 20.857 101.273 20.075C101.273 19.2023 101.618 18.46 102.31 17.848C103.001 17.236 103.902 16.93 105.013 16.93C106.123 16.93 107.024 17.236 107.716 17.848C108.407 18.46 108.753 19.2023 108.753 20.075C108.753 20.857 108.498 21.5143 107.988 22.047C107.772 22.2737 107.517 22.4663 107.223 22.625C107.608 22.795 107.948 23.016 108.243 23.288C108.923 23.9 109.263 24.6707 109.263 25.6C109.263 26.62 108.872 27.47 108.09 28.15C107.319 28.83 106.293 29.17 105.013 29.17C103.732 29.17 102.701 28.83 101.919 28.15C101.148 27.47 100.763 26.62 100.763 25.6ZM111.134 29L116.064 18.885H110.284V17.1H118.104V18.8L113.174 29H111.134ZM119.286 27.385L120.561 26.11C120.742 26.348 120.98 26.5747 121.275 26.79C121.91 27.2433 122.635 27.47 123.451 27.47C124.21 27.47 124.811 27.2603 125.253 26.841C125.695 26.4217 125.916 25.8663 125.916 25.175C125.916 24.4837 125.695 23.9283 125.253 23.509C124.811 23.0897 124.21 22.88 123.451 22.88C122.884 22.88 122.335 23.0783 121.802 23.475C121.564 23.679 121.377 23.8773 121.241 24.07L119.881 23.9L120.306 17.1H127.021V18.885H121.921L121.751 21.775C121.921 21.6617 122.102 21.5653 122.295 21.486C122.771 21.282 123.27 21.18 123.791 21.18C124.947 21.18 125.899 21.5597 126.647 22.319C127.406 23.067 127.786 24.019 127.786 25.175C127.786 26.3423 127.389 27.3 126.596 28.048C125.803 28.796 124.754 29.17 123.451 29.17C122.261 29.17 121.218 28.8753 120.323 28.286C119.938 28.048 119.592 27.7477 119.286 27.385Z" fill="white"/>
<circle cx="23" cy="23" r="8" fill="#EB001B"/>
<circle cx="33" cy="23" r="8" fill="#F79E1B"/>
<path d="M28 29.2456C29.8289 27.7795 31 25.5266 31 23.0003C31 20.4739 29.8289 18.221 28 16.7549C26.1711 18.221 25 20.4739 25 23.0003C25 25.5266 26.1711 27.7795 28 29.2456Z" fill="#FF5F00"/>
</svg>
