<svg width="24" height="24" viewBox="0 0 24 24" fill="none" xmlns="http://www.w3.org/2000/svg">
<path d="M9.71419 17.1429L17.1191 12.5462C17.5242 12.2948 17.5242 11.7053 17.1191 11.4539L9.71419 6.85718L9.71419 17.1429Z" fill="black"/>
<path d="M17.1191 12.5462L17.9102 13.8207L17.1191 12.5462ZM9.71419 17.1429L10.5053 18.4173C10.0427 18.7045 9.46084 18.7184 8.98503 18.4537C8.50922 18.1891 8.21419 17.6874 8.21419 17.1429L9.71419 17.1429ZM17.1191 11.4539L16.328 12.7283L16.328 12.7283L17.1191 11.4539ZM9.71419 6.85718L8.21419 6.85718C8.21419 6.31271 8.50922 5.811 8.98503 5.54633C9.46084 5.28166 10.0427 5.29561 10.5053 5.58276L9.71419 6.85718ZM17.9102 13.8207L10.5053 18.4173L8.92308 15.8685L16.328 11.2718L17.9102 13.8207ZM16.328 12.7283L8.92308 8.1316L10.5053 5.58276L17.9102 10.1795L16.328 12.7283ZM11.2142 6.85718L11.2142 17.1429L8.21419 17.1429L8.21419 6.85718L11.2142 6.85718ZM16.328 11.2718C15.7879 11.6071 15.7879 12.393 16.328 12.7283L17.9102 10.1795C19.2605 11.0177 19.2605 12.9825 17.9102 13.8207L16.328 11.2718Z" fill="black"/>
</svg>
