<svg width="54" height="54" viewBox="0 0 54 54" fill="none" xmlns="http://www.w3.org/2000/svg">
<rect width="54" height="54" rx="27" fill="#ED2F68" fill-opacity="0.1"/>
<g clip-path="url(#clip0)">
<ellipse cx="20" cy="35" rx="5" ry="4" fill="#ED2F68"/>
<path d="M24 20.6168C24 19.6738 24.6588 18.8588 25.5809 18.6612L35.5809 16.5184C36.826 16.2516 38 17.2007 38 18.474V19.8333L24 22.9369V20.6168Z" fill="#ED2F68"/>
<path d="M24 35V22.9369M38 32V19.8333M24 22.9369V20.6168C24 19.6738 24.6588 18.8588 25.5809 18.6612L35.5809 16.5184C36.826 16.2516 38 17.2007 38 18.474V19.8333M24 22.9369L38 19.8333" stroke="#ED2F68" stroke-width="2"/>
<ellipse cx="34" cy="32" rx="5" ry="4" fill="#ED2F68"/>
</g>
<defs>
<clipPath id="clip0">
<rect width="24" height="24" fill="white" transform="translate(15 15)"/>
</clipPath>
</defs>
</svg>
