<svg width="54" height="54" viewBox="0 0 54 54" fill="none" xmlns="http://www.w3.org/2000/svg">
<rect width="54" height="54" rx="27" fill="#007AFF" fill-opacity="0.1"/>
<path fill-rule="evenodd" clip-rule="evenodd" d="M27 39C33.6274 39 39 33.6274 39 27C39 20.3726 33.6274 15 27 15C20.3726 15 15 20.3726 15 27C15 33.6274 20.3726 39 27 39ZM23 27C24.1046 27 25 26.1046 25 25C25 23.8954 24.1046 23 23 23C21.8954 23 21 23.8954 21 25C21 26.1046 21.8954 27 23 27ZM33 25C33 26.1046 32.1046 27 31 27C29.8954 27 29 26.1046 29 25C29 23.8954 29.8954 23 31 23C32.1046 23 33 23.8954 33 25ZM22.7804 30.3748C22.4353 29.944 21.8064 29.8743 21.3753 30.2191C20.944 30.5641 20.8741 31.1934 21.2191 31.6247L22 31C21.2191 31.6247 21.2194 31.625 21.2196 31.6253L21.2201 31.6259L21.2213 31.6274L21.2242 31.631L21.2323 31.641L21.2575 31.6713C21.2782 31.696 21.3069 31.7294 21.3432 31.7705C21.4158 31.8524 21.5195 31.9649 21.6523 32.0977C21.917 32.3625 22.3025 32.7129 22.7938 33.0637C23.7676 33.7593 25.2189 34.5 27 34.5C28.7811 34.5 30.2324 33.7593 31.2062 33.0637C31.6975 32.7129 32.083 32.3625 32.3477 32.0977C32.4805 31.9649 32.5842 31.8524 32.6568 31.7705C32.6931 31.7294 32.7218 31.696 32.7425 31.6713L32.7677 31.641L32.7758 31.631L32.7787 31.6274L32.7799 31.6259L32.7804 31.6253C32.7806 31.625 32.7809 31.6247 32 31L32.7809 31.6247C33.1259 31.1934 33.056 30.5641 32.6247 30.2191C32.194 29.8746 31.5658 29.9439 31.2205 30.3736L31.2199 30.3743L31.2196 30.3748L31.2111 30.3849C31.2011 30.3968 31.1838 30.417 31.1596 30.4444C31.1111 30.4991 31.0351 30.582 30.9335 30.6835C30.7295 30.8875 30.4275 31.1621 30.0438 31.4363C29.2676 31.9907 28.2189 32.5 27 32.5C25.7811 32.5 24.7324 31.9907 23.9562 31.4363C23.5725 31.1621 23.2705 30.8875 23.0665 30.6835C22.9649 30.582 22.8889 30.4991 22.8404 30.4444C22.8162 30.417 22.7989 30.3968 22.7889 30.3849L22.7794 30.3735L22.7801 30.3743L22.7804 30.3748ZM22.7804 30.3748C22.7807 30.375 22.7809 30.3753 22 31L22.7809 30.3753C22.7807 30.3751 22.7806 30.375 22.7804 30.3748Z" fill="#007AFF"/>
</svg>
