<svg width="221" height="52" viewBox="0 0 221 52" fill="none" xmlns="http://www.w3.org/2000/svg">
<path d="M23.4285 50.9641H35.3834L25.4898 31.1449C31.4672 29.0038 35.1085 23.9628 35.1085 17.3333C35.1085 8.632 28.9251 2.00251 19.3064 2.00251H0V50.9641H10.8553V32.7335H14.703L23.4285 50.9641V50.9641ZM10.8553 23.3414V11.4635H17.2451C21.7111 11.4635 24.1157 13.7423 24.1157 17.4027C24.1157 20.8551 21.7111 23.3414 17.2451 23.3414H10.8553ZM39.7231 41.5031C39.7231 46.9591 44.0516 51.9312 51.5405 51.9312C56.075 51.9312 59.3728 49.9975 61.1592 47.0967C61.1592 49.4449 61.4341 50.6878 61.5026 50.9641H70.9154C70.8469 50.6189 70.503 48.3401 70.503 45.6468V28.8661C70.503 21.8222 66.4494 15.6071 55.3882 15.6071C45.3571 15.6071 40.8222 22.0985 40.4103 27.0013L49.4792 28.8656C49.6852 26.311 51.678 23.8247 55.3192 23.8247C58.6171 23.8247 60.3345 25.5509 60.3345 27.5539C60.3345 28.728 59.7162 29.6257 57.8614 29.9015L49.8226 31.1449C44.189 31.9734 39.7231 35.4263 39.7231 41.5031V41.5031ZM54.0827 44.3346C51.1971 44.3346 50.029 42.6084 50.029 40.8129C50.029 38.3959 51.678 37.36 53.8762 37.0148L60.3345 35.9789V37.4981C60.3345 42.8154 57.1741 44.3346 54.0827 44.3346V44.3346ZM101.001 16.6426C100.314 16.4356 99.2841 16.2974 98.2534 16.2974C95.5049 16.2974 91.1763 17.4022 89.3905 21.2695V16.6426H79.2904V50.9641H89.7338V35.9789C89.7338 29.1424 93.5126 26.6561 97.7036 26.6561C98.7343 26.6561 99.8334 26.7249 101.001 27.0013V16.6426V16.6426ZM117.779 50.9641V16.6426H107.337V50.9641H117.779ZM106.443 6.1462C106.443 9.52977 109.191 12.2924 112.489 12.2924C115.925 12.2924 118.673 9.52977 118.673 6.1462C118.673 2.76212 115.925 0 112.489 0C109.191 0 106.443 2.76212 106.443 6.1462ZM137.028 50.9641V47.0967C138.608 49.7212 142.112 51.7237 146.647 51.7237C156.197 51.7237 162.93 44.1964 162.93 33.7001C162.93 23.4102 156.953 15.8141 147.059 15.8141C142.387 15.8141 138.608 17.7478 137.165 19.8885V0.966588H126.928V50.9641H137.028V50.9641ZM152.487 33.7689C152.487 39.5006 148.845 42.3321 144.792 42.3321C140.738 42.3321 137.028 39.4318 137.028 33.7689C137.028 27.9684 140.738 25.2751 144.792 25.2751C148.845 25.2751 152.487 27.9684 152.487 33.7689ZM180.111 50.9641V0.966588H169.668V50.9641H180.111V50.9641ZM197.228 29.6946C197.434 27.1394 199.633 23.8935 204.03 23.8935C208.977 23.8935 210.763 27.0706 210.9 29.6946H197.228ZM211.656 38.6029C210.694 41.2962 208.564 43.0917 204.786 43.0917C200.732 43.0917 197.228 40.3296 197.022 36.4622H220.794C220.863 36.2547 221 34.6667 221 33.2163C221 22.1673 214.473 15.6071 203.892 15.6071C195.029 15.6071 186.853 22.6506 186.853 33.7001C186.853 45.2324 195.235 52 204.648 52C213.305 52 218.733 47.0279 220.382 41.0892L211.656 38.6029V38.6029Z" fill="black"/>
</svg>
