<svg width="39" height="16" viewBox="0 0 39 16" fill="none" xmlns="http://www.w3.org/2000/svg">
<path d="M37 8L38.0607 9.06066C38.6464 8.47487 38.6464 7.52512 38.0607 6.93934L37 8ZM32.0607 0.93934C31.4749 0.353553 30.5251 0.353553 29.9393 0.93934C29.3536 1.52513 29.3536 2.47487 29.9393 3.06066L32.0607 0.93934ZM29.9393 12.9393C29.3536 13.5251 29.3536 14.4749 29.9393 15.0607C30.5251 15.6464 31.4749 15.6464 32.0607 15.0607L29.9393 12.9393ZM2 6.5C1.17157 6.5 0.5 7.17157 0.5 8C0.5 8.82843 1.17157 9.5 2 9.5L2 6.5ZM38.0607 6.93934L32.0607 0.93934L29.9393 3.06066L35.9393 9.06066L38.0607 6.93934ZM35.9393 6.93934L29.9393 12.9393L32.0607 15.0607L38.0607 9.06066L35.9393 6.93934ZM37 6.5L2 6.5L2 9.5L37 9.5L37 6.5Z" fill="white"/>
</svg>
