<svg width="71" height="70" viewBox="0 0 71 70" fill="none" xmlns="http://www.w3.org/2000/svg">
<path fill-rule="evenodd" clip-rule="evenodd" d="M11.2493 59.7485C24.9177 73.4168 47.0784 73.4168 60.7468 59.7485C74.4151 46.0801 74.4151 23.9194 60.7468 10.251C47.0784 -3.41733 24.9177 -3.41733 11.2493 10.251C-2.41904 23.9194 -2.41904 46.0801 11.2493 59.7485ZM38.4326 27.9401C37.8469 27.3544 36.8971 27.3544 36.3113 27.9401C35.7255 28.5259 35.7255 29.4757 36.3113 30.0615L39.7506 33.5008L28.4994 33.5006C27.671 33.5006 26.9994 34.1722 26.9994 35.0006C26.9994 35.829 27.6709 36.5006 28.4993 36.5006L39.7507 36.5008L36.3113 39.9401C35.7255 40.5259 35.7255 41.4757 36.3113 42.0615C36.8971 42.6472 37.8469 42.6472 38.4326 42.0615L44.4326 36.0615C45.0184 35.4757 45.0184 34.5259 44.4326 33.9401L38.4326 27.9401Z" fill="white"/>
</svg>
