<svg width="40" height="40" viewBox="0 0 40 40" fill="none" xmlns="http://www.w3.org/2000/svg">
<path d="M20 37.5781C29.7081 37.5781 37.5781 29.7081 37.5781 20C37.5781 10.2919 29.7081 2.42188 20 2.42188C10.2919 2.42188 2.42188 10.2919 2.42188 20C2.42188 29.7081 10.2919 37.5781 20 37.5781Z" fill="#4AAEE8"/>
<path d="M20.5904 28.3261C20.3971 28.131 19.7163 26.9427 19.0775 25.6855C18.4387 24.4282 17.7867 23.2146 17.6285 22.9887C17.4482 22.7311 16.4285 22.1185 14.8951 21.3468C12.1365 19.9584 11.7659 19.6605 11.8405 18.892C11.9087 18.1897 12.1883 18.0444 16.0715 16.6935C17.8476 16.0756 20.7124 15.0793 22.4378 14.4794C24.1631 13.8795 25.766 13.3887 25.9999 13.3887C26.4881 13.3887 26.9469 13.8203 26.9469 14.2797C26.9469 14.4526 26.3714 16.2561 25.668 18.2874C24.9646 20.3187 24.1573 22.6546 23.8739 23.4784C22.9161 26.2628 22.1836 28.1278 21.939 28.405C21.6036 28.7851 21.0107 28.7504 20.5904 28.3261Z" fill="white"/>
</svg>
