<svg width="70" height="70" viewBox="0 0 70 70" fill="none" xmlns="http://www.w3.org/2000/svg">
<circle cx="35" cy="35" r="35" fill="#0C0118"/>
<path d="M33.5007 42.5C33.5007 43.3285 34.1722 44.0001 35.0007 44.0001C35.8291 44.0001 36.5007 43.3285 36.5007 42.5001L33.5007 42.5ZM35.0009 27.6274L36.0615 26.5668C35.4757 25.981 34.526 25.981 33.9402 26.5668L35.0009 27.6274ZM27.9402 32.5668C27.3544 33.1526 27.3544 34.1023 27.9402 34.6881C28.526 35.2739 29.4757 35.2739 30.0615 34.6881L27.9402 32.5668ZM39.9402 34.6881C40.526 35.2739 41.4757 35.2739 42.0615 34.6881C42.6473 34.1023 42.6473 33.1526 42.0615 32.5668L39.9402 34.6881ZM36.5007 42.5001L36.5009 27.6275L33.5009 27.6274L33.5007 42.5L36.5007 42.5001ZM33.9402 26.5668L27.9402 32.5668L30.0615 34.6881L36.0615 28.6881L33.9402 26.5668ZM33.9402 28.6881L39.9402 34.6881L42.0615 32.5668L36.0615 26.5668L33.9402 28.6881Z" fill="white"/>
</svg>
