<svg width="20" height="20" viewBox="0 0 20 20" fill="none" xmlns="http://www.w3.org/2000/svg">
<path d="M3.41421 0.585786C2.63317 -0.195262 1.36683 -0.195262 0.585786 0.585786C-0.195262 1.36683 -0.195262 2.63317 0.585786 3.41421L3.41421 0.585786ZM16.5858 19.4142C17.3668 20.1953 18.6332 20.1953 19.4142 19.4142C20.1953 18.6332 20.1953 17.3668 19.4142 16.5858L16.5858 19.4142ZM19.4142 3.41421C20.1953 2.63317 20.1953 1.36683 19.4142 0.585786C18.6332 -0.195262 17.3668 -0.195262 16.5858 0.585786L19.4142 3.41421ZM0.585786 16.5858C-0.195262 17.3668 -0.195262 18.6332 0.585786 19.4142C1.36683 20.1953 2.63317 20.1953 3.41421 19.4142L0.585786 16.5858ZM0.585786 3.41421L16.5858 19.4142L19.4142 16.5858L3.41421 0.585786L0.585786 3.41421ZM16.5858 0.585786L0.585786 16.5858L3.41421 19.4142L19.4142 3.41421L16.5858 0.585786Z" fill="black"/>
</svg>
